<?xml version="1.0" encoding="UTF-8"?>
<svg xmlns="http://www.w3.org/2000/svg" viewBox="464.2698 408.0828 16.8774 14.5792">
  <path fill="black" fill-rule="evenodd" d="M 465.5992 412.3105 L 465.6581 412.148 L 465.7247 411.9889 L 465.799 411.8332 L 465.881 411.681 L 465.9706 411.5323 L 466.0679 411.387 L 466.1728 411.2451 L 466.2852 411.1066 L 466.4052 410.9716 L 466.5328 410.84 L 466.6678 410.7118 L 466.8103 410.587 L 466.9603 410.4656 L 467.1176 410.3476 L 467.2824 410.233 L 467.4545 410.1217 L 467.6346 410.0159 L 467.8152 409.9168 L 467.9962 409.8245 L 468.1779 409.7391 L 468.3601 409.6605 L 468.5431 409.5887 L 468.7266 409.5238 L 468.9109 409.4657 L 469.0959 409.4143 L 469.2817 409.3699 L 469.4683 409.3323 L 469.6556 409.3015 L 469.8439 409.2775 L 470.0331 409.2604 L 470.2232 409.2502 L 470.4143 409.2467 L 470.5686 409.2489 L 470.7191 409.2556 L 470.8655 409.2667 L 471.008 409.2825 L 471.1464 409.3028 L 471.2807 409.3278 L 471.4109 409.3576 L 471.5371 409.3923 L 471.659 409.4318 L 471.7768 409.4763 L 471.8903 409.5258 L 471.9996 409.5804 L 472.1047 409.6402 L 472.2054 409.7051 L 472.3017 409.7754 L 472.3937 409.851 L 472.4843 409.9305 L 472.5687 410.0129 L 472.6468 410.0981 L 472.7187 410.1861 L 472.7846 410.2769 L 472.8444 410.3702 L 472.8982 410.4661 L 472.9461 410.5646 L 472.9881 410.6654 L 473.0244 410.7687 L 473.0548 410.8742 L 473.0797 410.982 L 473.0988 411.092 L 473.1125 411.204 L 473.1206 411.3181 L 473.1233 411.4342 L 473.1229 411.4892 L 473.1213 411.5442 L 473.1187 411.599 L 473.1149 411.6539 L 473.1099 411.7087 L 473.1036 411.7634 L 473.096 411.8182 L 473.087 411.8729 L 473.0765 411.9276 L 473.0645 411.9823 L 473.0508 412.0369 L 473.0355 412.0916 L 473.0185 412.1464 L 472.9998 412.201 L 472.9791 412.2558 L 472.9566 412.3105 L 472.8981 412.4731 L 472.8318 412.6327 L 472.7577 412.7892 L 472.6758 412.9427 L 472.5859 413.0929 L 472.4883 413.2399 L 472.3828 413.3836 L 472.2695 413.524 L 472.1484 413.661 L 472.0194 413.7945 L 471.8826 413.9244 L 471.7379 414.0508 L 471.5855 414.1736 L 471.4252 414.2926 L 471.2571 414.4079 L 471.0812 414.5194 L 470.9012 414.6255 L 470.7206 414.7247 L 470.5395 414.817 L 470.3578 414.9026 L 470.1755 414.9812 L 469.9927 415.053 L 469.8091 415.1179 L 469.6248 415.1759 L 469.4398 415.2272 L 469.2541 415.2716 L 469.0675 415.3091 L 468.8801 415.3398 L 468.6918 415.3637 L 468.5026 415.3807 L 468.3125 415.391 L 468.1214 415.3944 L 467.9708 415.3917 L 467.8242 415.3837 L 467.6814 415.3705 L 467.5424 415.352 L 467.4072 415.3285 L 467.2758 415.2999 L 467.1482 415.2662 L 467.0242 415.2276 L 466.9039 415.1842 L 466.7873 415.1359 L 466.6742 415.0829 L 466.5648 415.0253 L 466.4589 414.9629 L 466.3565 414.8961 L 466.2575 414.8246 L 466.162 414.7488 L 465.4337 413.1642 L 465.4345 413.1095 L 465.4366 413.0547 L 465.4402 413 L 465.4452 412.9452 L 465.4514 412.8903 L 465.459 412.8352 L 465.4678 412.78 L 465.4779 412.7245 L 465.4892 412.6688 L 465.5017 412.6128 L 465.5153 412.5564 L 465.53 412.4997 L 465.5458 412.4425 L 465.5626 412.3848 L 465.5804 412.3266 L 465.5992 412.2679 L 465.5992 412.3105 Z M 472.4591 415.3624 L 472.518 415.1998 L 472.5846 415.0407 L 472.6589 414.885 L 472.7409 414.7328 L 472.8306 414.5841 L 472.9278 414.4388 L 473.0327 414.2969 L 473.1452 414.1584 L 473.2652 414.0234 L 473.3927 413.8918 L 473.5277 413.7636 L 473.6702 413.6388 L 473.8202 413.5174 L 473.9775 413.3994 L 474.1423 413.2848 L 474.3145 413.1736 L 474.4945 413.0677 L 474.6751 412.9686 L 474.8561 412.8763 L 475.0378 412.7909 L 475.2201 412.7123 L 475.403 412.6406 L 475.5865 412.5756 L 475.7708 412.5175 L 475.9558 412.4662 L 476.1416 412.4217 L 476.3282 412.3841 L 476.5156 412.3533 L 476.7039 412.3293 L 476.893 412.3123 L 477.0831 412.302 L 477.2742 412.2986 L 477.4286 412.3008 L 477.579 412.3074 L 477.7254 412.3185 L 477.8679 412.3342 L 478.0063 412.3546 L 478.1406 412.3797 L 478.2709 412.4095 L 478.397 412.4441 L 478.519 412.4836 L 478.6367 412.5281 L 478.7502 412.5776 L 478.8596 412.6322 L 478.9646 412.692 L 479.0653 412.757 L 479.1617 412.8272 L 479.2536 412.9028 L 479.3442 412.9823 L 479.4286 413.0647 L 479.5067 413.1499 L 479.5786 413.2379 L 479.6445 413.3287 L 479.7043 413.422 L 479.7581 413.5179 L 479.806 413.6164 L 479.848 413.7173 L 479.8843 413.8205 L 479.9148 413.926 L 479.9396 414.0338 L 479.9588 414.1438 L 479.9724 414.2559 L 479.9806 414.37 L 479.9832 414.4861 L 479.9828 414.541 L 479.9812 414.5959 L 479.9786 414.6508 L 479.9748 414.7057 L 479.9698 414.7605 L 479.9635 414.8152 L 479.9559 414.87 L 479.9469 414.9247 L 479.9364 414.9794 L 479.9244 415.0341 L 479.9107 415.0887 L 479.8954 415.1435 L 479.8785 415.1982 L 479.8597 415.2529 L 479.839 415.3076 L 479.8165 415.3624 L 479.7581 415.525 L 479.6918 415.6845 L 479.6176 415.8411 L 479.5357 415.9945 L 479.4459 416.1447 L 479.3482 416.2917 L 479.2427 416.4355 L 479.1294 416.5758 L 479.0083 416.7128 L 478.8793 416.8463 L 478.7425 416.9763 L 478.5978 417.1027 L 478.4454 417.2254 L 478.2852 417.3445 L 478.1171 417.4597 L 477.9411 417.5712 L 477.7611 417.6773 L 477.5805 417.7766 L 477.3994 417.8689 L 477.2177 417.9543 L 477.0355 418.033 L 476.8526 418.1048 L 476.669 418.1697 L 476.4848 418.2278 L 476.2997 418.279 L 476.114 418.3234 L 475.9274 418.3609 L 475.74 418.3916 L 475.5517 418.4155 L 475.3625 418.4326 L 475.1725 418.4428 L 474.9814 418.4462 L 474.8308 418.4435 L 474.6841 418.4355 L 474.5413 418.4223 L 474.4023 418.4038 L 474.2671 418.3803 L 474.1357 418.3516 L 474.0081 418.318 L 473.8841 418.2794 L 473.7639 418.236 L 473.6472 418.1878 L 473.5342 418.1348 L 473.4247 418.0771 L 473.3188 418.0147 L 473.2164 417.9478 L 473.1174 417.8765 L 473.0219 417.8006 L 472.2937 416.216 L 472.2944 416.1613 L 472.2966 416.1065 L 472.3001 416.0518 L 472.3051 415.997 L 472.3113 415.9421 L 472.3189 415.8871 L 472.3278 415.8318 L 472.3378 415.7764 L 472.3492 415.7206 L 472.3616 415.6646 L 472.3752 415.6082 L 472.3899 415.5515 L 472.4057 415.4943 L 472.4225 415.4366 L 472.4403 415.3784 L 472.4591 415.3197 L 472.4591 415.3624 Z M 465.5992 418.4142 L 465.6581 418.2516 L 465.7247 418.0925 L 465.799 417.9368 L 465.881 417.7846 L 465.9706 417.6359 L 466.0679 417.4905 L 466.1728 417.3486 L 466.2852 417.2102 L 466.4052 417.0752 L 466.5328 416.9436 L 466.6678 416.8154 L 466.8103 416.6906 L 466.9603 416.5692 L 467.1176 416.4512 L 467.2824 416.3366 L 467.4545 416.2253 L 467.6346 416.1194 L 467.8152 416.0204 L 467.9962 415.9282 L 468.1779 415.8427 L 468.3601 415.7641 L 468.5431 415.6923 L 468.7266 415.6274 L 468.9109 415.5692 L 469.0959 415.518 L 469.2817 415.4735 L 469.4683 415.4359 L 469.6556 415.4051 L 469.8439 415.3811 L 470.0331 415.364 L 470.2232 415.3538 L 470.4143 415.3503 L 470.5686 415.3525 L 470.7191 415.3592 L 470.8655 415.3703 L 471.008 415.386 L 471.1464 415.4064 L 471.2807 415.4315 L 471.4109 415.4613 L 471.5371 415.4959 L 471.659 415.5354 L 471.7768 415.5799 L 471.8903 415.6294 L 471.9996 415.684 L 472.1047 415.7438 L 472.2054 415.8087 L 472.3017 415.879 L 472.3937 415.9546 L 472.4843 416.0341 L 472.5687 416.1165 L 472.6468 416.2017 L 472.7187 416.2897 L 472.7846 416.3805 L 472.8444 416.4738 L 472.8982 416.5698 L 472.9461 416.6682 L 472.9881 416.7691 L 473.0244 416.8723 L 473.0548 416.9778 L 473.0797 417.0856 L 473.0988 417.1956 L 473.1125 417.3077 L 473.1206 417.4218 L 473.1233 417.5378 L 473.1229 417.5928 L 473.1213 417.6478 L 473.1187 417.7026 L 473.1149 417.7574 L 473.1099 417.8123 L 473.1036 417.8671 L 473.096 417.9218 L 473.087 417.9765 L 473.0765 418.0312 L 473.0645 418.0859 L 473.0508 418.1406 L 473.0355 418.1953 L 473.0185 418.2499 L 472.9998 418.3047 L 472.9791 418.3594 L 472.9566 418.4142 L 472.8981 418.5768 L 472.8318 418.7363 L 472.7577 418.8929 L 472.6758 419.0463 L 472.5859 419.1965 L 472.4883 419.3435 L 472.3828 419.4872 L 472.2695 419.6276 L 472.1484 419.7646 L 472.0194 419.8981 L 471.8826 420.0281 L 471.7379 420.1544 L 471.5855 420.2772 L 471.4252 420.3962 L 471.2571 420.5115 L 471.0812 420.623 L 470.9012 420.7291 L 470.7206 420.8283 L 470.5395 420.9207 L 470.3578 421.0062 L 470.1755 421.0848 L 469.9927 421.1566 L 469.8091 421.2215 L 469.6248 421.2796 L 469.4398 421.3308 L 469.2541 421.3752 L 469.0675 421.4127 L 468.8801 421.4434 L 468.6918 421.4673 L 468.5026 421.4844 L 468.3125 421.4946 L 468.1214 421.498 L 467.9708 421.4953 L 467.8242 421.4873 L 467.6814 421.4741 L 467.5424 421.4556 L 467.4072 421.4321 L 467.2758 421.4035 L 467.1482 421.3698 L 467.0242 421.3313 L 466.9039 421.2878 L 466.7873 421.2395 L 466.6742 421.1866 L 466.5648 421.1289 L 466.4589 421.0665 L 466.3565 420.9996 L 466.2575 420.9282 L 466.162 420.8524 L 465.4337 419.2678 L 465.4345 419.2131 L 465.4366 419.1583 L 465.4402 419.1036 L 465.4452 419.0488 L 465.4514 418.994 L 465.459 418.9388 L 465.4678 418.8836 L 465.4779 418.8282 L 465.4892 418.7725 L 465.5017 418.7164 L 465.5153 418.66 L 465.53 418.6033 L 465.5458 418.5461 L 465.5626 418.4884 L 465.5804 418.4302 L 465.5992 418.3715 L 465.5992 418.4142 Z "/>
</svg>
