<svg xmlns="http://www.w3.org/2000/svg" viewBox="443.472 177.081 11.286 9.716"><rect x="443.472" y="177.081" width="11.286" height="9.716" fill="white"/><path fill="black" fill-rule="evenodd" d="M 450.756 177.86 L 450.517 177.864 L 450.279 177.877 L 450.044 177.9 L 449.81 177.931 L 449.578 177.971 L 449.348 178.019 L 449.12 178.077 L 448.893 178.144 L 448.668 178.219 L 448.444 178.303 L 448.223 178.396 L 448.003 178.498 L 447.785 178.609 L 447.569 178.729 L 447.354 178.858 L 447.141 178.995 L 446.93 179.142 L 446.72 179.297 L 446.513 179.461 L 446.307 179.634 L 446.106 179.812 L 445.916 179.99 L 445.736 180.17 L 445.566 180.35 L 445.406 180.53 L 445.257 180.712 L 445.119 180.894 L 444.99 181.077 L 444.872 181.261 L 444.764 181.445 L 444.666 181.631 L 444.579 181.817 L 444.502 182.003 L 444.435 182.191 L 444.379 182.379 L 444.333 182.568 L 444.297 182.757 L 444.271 182.947 L 444.256 183.138 L 444.251 183.33 L 444.253 183.447 L 444.259 183.563 L 444.271 183.676 L 444.286 183.787 L 444.306 183.896 L 444.33 184.002 L 444.359 184.107 L 444.393 184.21 L 444.43 184.31 L 444.472 184.409 L 444.519 184.505 L 444.57 184.599 L 444.625 184.691 L 444.685 184.782 L 444.75 184.87 L 444.818 184.956 L 444.892 185.04 L 444.969 185.122 L 445.051 185.202 L 445.138 185.28 L 445.234 185.352 L 445.332 185.42 L 445.432 185.485 L 445.535 185.546 L 445.639 185.604 L 445.746 185.657 L 445.855 185.707 L 445.967 185.753 L 446.08 185.796 L 446.196 185.834 L 446.314 185.87 L 446.434 185.901 L 446.556 185.929 L 446.681 185.952 L 446.807 185.973 L 446.936 185.989 L 447.068 186.002 L 447.201 186.011 L 447.337 186.017 L 447.475 186.019 L 447.711 186.014 L 447.945 186.001 L 448.178 185.979 L 448.409 185.949 L 448.639 185.91 L 448.867 185.862 L 449.094 185.805 L 449.319 185.74 L 449.543 185.665 L 449.766 185.583 L 449.987 185.491 L 450.206 185.391 L 450.425 185.282 L 450.641 185.165 L 450.856 185.038 L 451.07 184.903 L 451.282 184.76 L 451.493 184.608 L 451.703 184.447 L 451.911 184.277 L 452.112 184.102 L 452.303 183.925 L 452.484 183.748 L 452.655 183.569 L 452.815 183.389 L 452.965 183.208 L 453.105 183.026 L 453.234 182.842 L 453.353 182.658 L 453.462 182.472 L 453.56 182.285 L 453.648 182.097 L 453.726 181.907 L 453.794 181.717 L 453.851 181.525 L 453.897 181.332 L 453.934 181.138 L 453.96 180.943 L 453.975 180.746 L 453.98 180.549 L 453.978 180.42 L 453.971 180.294 L 453.96 180.171 L 453.944 180.052 L 453.923 179.935 L 453.898 179.822 L 453.868 179.711 L 453.834 179.604 L 453.795 179.5 L 453.751 179.398 L 453.703 179.3 L 453.65 179.205 L 453.593 179.113 L 453.531 179.023 L 453.464 178.937 L 453.393 178.854 L 453.317 178.774 L 453.236 178.697 L 453.151 178.624 L 453.061 178.553 L 452.968 178.485 L 452.873 178.421 L 452.776 178.36 L 452.676 178.303 L 452.574 178.25 L 452.47 178.199 L 452.363 178.153 L 452.254 178.109 L 452.142 178.069 L 452.028 178.033 L 451.911 178 L 451.793 177.971 L 451.671 177.945 L 451.548 177.922 L 451.422 177.903 L 451.293 177.888 L 451.163 177.875 L 451.029 177.867 L 450.894 177.862 L 450.756 177.86 Z "/></svg>